<svg width="16" height="16" viewBox="0 0 16 16" fill="none" xmlns="http://www.w3.org/2000/svg">
<path fill-rule="evenodd" clip-rule="evenodd" d="M12.2031 2.87964C12.5285 3.54345 13.2109 4.00049 14 4.00049C15.1046 4.00049 16 3.10506 16 2.00049C16 1.98851 15.9999 1.97656 15.9997 1.96463C15.9999 1.95647 16 1.94828 16 1.94006C16 1.89574 15.9969 1.85214 15.991 1.80945C15.8948 0.794494 15.0401 0.000488239 14 0.000488194C13.2597 0.000488161 12.6134 0.402687 12.2676 1.00049L0.938707 1.00049C0.419795 1.00049 -0.000867906 1.42115 -0.000867928 1.94006C-0.000867951 2.45898 0.419794 2.87964 0.938707 2.87964L12.2031 2.87964ZM16 7.94006C16 7.42115 15.5793 7.00049 15.0604 7.00049L9.73244 7.00049C9.38663 6.40269 8.74028 6.00049 8 6.00049C7.25972 6.00049 6.61337 6.40269 6.26756 7.00049L0.938707 7.00049C0.419795 7.00049 -0.000868168 7.42115 -0.000868191 7.94006C-0.000868213 8.45898 0.419794 8.87964 0.938707 8.87964L6.20309 8.87964C6.52847 9.54345 7.21086 10.0005 8 10.0005C8.78914 10.0005 9.47153 9.54345 9.79691 8.87964L15.0604 8.87964C15.5793 8.87964 16 8.45898 16 7.94006ZM15.0604 13.0005C15.5793 13.0005 16 13.4212 16 13.9401C16 14.459 15.5793 14.8796 15.0604 14.8796L3.79691 14.8796C3.47153 15.5435 2.78914 16.0005 2 16.0005C0.895431 16.0005 2.93433e-07 15.1051 3.41715e-07 14.0005L7.85438e-05 13.9826C-0.000551834 13.9685 -0.000868454 13.9543 -0.000868453 13.9401C-0.000868451 13.8897 0.00310074 13.8402 0.0107435 13.7919C0.11504 12.7854 0.965861 12.0005 2 12.0005C2.74028 12.0005 3.38663 12.4027 3.73244 13.0005L15.0604 13.0005Z" fill="currentColor"/>
</svg>
